Coordinates
version=1
nRows=33
nColumns=33
inDegrees=yes

Units are S.I. units (second, meters, Newtons, ...)
Angles are in degrees.

endheader
time	ground_thorax_rot_x	ground_thorax_rot_y	ground_thorax_rot_z	ground_thorax_tx	ground_thorax_ty	ground_thorax_tz	clav_prot_r	clav_elev_r	scapula_abduction_r	scapula_elevation_r	scapula_upward_rot_r	scapula_winging_r	shoulder_elv_r	plane_of_elev_r	axial_rot_r	elbow_flexion_r	pro_sup_r	wrist_flex_r	wrist_dev_r	clav_prot_l	clav_elev_l	scapula_abduction_l	scapula_elevation_l	scapula_upward_rot_l	scapula_winging_l	shoulder_elv_l	plane_of_elev_l	axial_rot_l	elbow_flexion_l	pro_sup_l	wrist_flex_l	wrist_dev_l	
2.6200	-2.262711	9.372651	16.621942	-0.122231	1.065365	-0.005312	-2.388301	12.008709	25.617650	2.266027	44.959405	-13.617533	72.051014	36.786362	-33.315776	30.118838	48.386494	2.686166	-1.703822	11.921597	-2.839039	-20.486589	-3.439055	-2.745352	6.607209	34.288918	58.652904	-25.357447	106.693185	34.928710	-17.574352	-17.203845	
2.6300	-2.265367	9.367874	16.485973	-0.121856	1.064877	-0.005898	-2.563245	12.015628	25.279385	2.271994	44.950105	-13.547086	72.008585	37.086454	-32.997610	30.199817	48.360361	2.852284	-1.790577	11.863661	-2.721332	-20.423507	-3.493703	-2.628084	6.614573	34.171053	58.650792	-25.502258	106.795319	34.924923	-17.563163	-17.250233	
2.6400	-2.258619	9.340255	16.375126	-0.121577	1.064370	-0.006437	-2.637810	12.076339	25.119625	2.320897	44.942627	-13.522636	71.931793	37.279276	-32.728487	30.219682	48.415929	3.015658	-1.809428	11.828996	-2.631284	-20.390721	-3.536736	-2.541824	6.627227	34.137009	58.610008	-25.551869	106.896860	34.948530	-17.575003	-17.298047	
2.6500	-2.266687	9.313454	16.279526	-0.121299	1.063927	-0.006947	-2.708614	12.135015	24.967865	2.368083	44.935858	-13.499584	71.813305	37.467678	-32.511545	30.153891	48.441006	3.128346	-1.800706	11.798986	-2.561492	-20.354331	-3.575566	-2.487260	6.630985	34.104588	58.563811	-25.611235	106.995985	34.987241	-17.572776	-17.355538	
2.6600	-2.289072	9.292624	16.194251	-0.121029	1.063565	-0.007433	-2.772878	12.184049	24.830515	2.407566	44.929389	-13.478104	71.659192	37.639690	-32.358328	30.025343	48.430663	3.191122	-1.773024	11.773196	-2.516119	-20.315670	-3.604821	-2.460558	6.625913	34.073706	58.515748	-25.685220	107.086619	35.041628	-17.554959	-17.420659	
2.6700	-2.328801	9.275653	16.116730	-0.120758	1.063302	-0.007892	-2.832051	12.219528	24.701546	2.436881	44.918901	-13.456713	71.471039	37.792486	-32.265799	29.870939	48.375417	3.206372	-1.733801	11.746816	-2.494680	-20.266309	-3.624963	-2.461496	6.608455	34.046511	58.468720	-25.778163	107.170476	35.116865	-17.516050	-17.494538	
2.6800	-2.382124	9.266716	16.039608	-0.120486	1.063134	-0.008329	-2.882609	12.238258	24.584140	2.454142	44.900257	-13.435571	71.266809	37.918572	-32.225486	29.722206	48.282598	3.184792	-1.693463	11.719466	-2.499011	-20.207420	-3.632835	-2.486551	6.579241	34.023804	58.433814	-25.890644	107.240420	35.210083	-17.453423	-17.569325	
2.6900	-2.450318	9.264746	15.965464	-0.120168	1.063096	-0.008736	-2.956517	12.233875	24.429375	2.452549	44.882960	-13.404613	71.017226	38.047616	-32.217911	29.599588	48.118235	3.129280	-1.654665	11.673608	-2.532750	-20.105093	-3.629179	-2.543675	6.521890	33.989213	58.416607	-26.042373	107.306484	35.358529	-17.337559	-17.667206	
2.7000	-2.524794	9.276056	15.887851	-0.119806	1.063154	-0.009114	-3.047282	12.209503	24.246659	2.434982	44.864933	-13.365791	70.752998	38.174436	-32.220505	29.511902	47.912329	3.063544	-1.628861	11.612184	-2.589824	-19.969982	-3.613175	-2.618906	6.443443	33.937227	58.423454	-26.225767	107.361963	35.541154	-17.178013	-17.763208	
2.7100	-2.604121	9.294769	15.809671	-0.119395	1.063288	-0.009463	-3.151503	12.170341	24.041151	2.405683	44.845991	-13.320956	70.483949	38.305519	-32.218430	29.449460	47.678176	2.994994	-1.621727	11.534808	-2.665294	-19.803396	-3.586805	-2.706734	6.346599	33.861714	58.457133	-26.449444	107.406081	35.739133	-16.972466	-17.820102	
2.7200	-2.674321	9.320996	15.727572	-0.118959	1.063432	-0.009780	-3.239179	12.127519	23.853850	2.375768	44.813252	-13.278846	70.266371	38.428231	-32.190604	29.401120	47.471949	2.944088	-1.640157	11.452530	-2.737819	-19.632622	-3.558424	-2.783798	6.249598	33.763740	58.513590	-26.683356	107.435217	35.892423	-16.757389	-17.777018	
2.7300	-2.730828	9.350793	15.650905	-0.118464	1.063571	-0.010067	-3.323009	12.079641	23.667948	2.343011	44.773282	-13.236319	70.094276	38.566782	-32.103189	29.335929	47.298650	2.921866	-1.706352	11.349789	-2.805481	-19.428065	-3.532153	-2.854678	6.139925	33.595096	58.606089	-26.969093	107.460614	35.960664	-16.495947	-17.509033	
2.7400	-2.762352	9.384004	15.567689	-0.117913	1.063656	-0.010322	-3.375998	12.022861	23.514193	2.307881	44.705124	-13.198170	70.037077	38.721142	-31.954729	29.245937	47.180886	2.933388	-1.815362	11.233610	-2.853787	-19.210424	-3.510510	-2.896414	6.031407	33.363468	58.725533	-27.274524	107.485614	35.921670	-16.234505	-17.015894	
2.7500	-2.763654	9.411296	15.465528	-0.117270	1.063700	-0.010538	-3.409545	11.951431	23.377763	2.264921	44.614026	-13.161385	70.092828	38.914025	-31.753661	29.136474	47.091899	2.972439	-1.966408	11.094134	-2.889177	-18.966432	-3.484730	-2.901630	5.918072	33.077360	58.862137	-27.596556	107.530680	35.806741	-15.978062	-16.335976	
2.7600	-2.734106	9.428024	15.321607	-0.116489	1.063713	-0.010713	-3.411751	11.807755	23.229840	2.178642	44.434805	-13.111018	70.390000	39.227294	-31.523838	28.969656	46.930701	2.993560	-2.116780	10.909779	-2.910947	-18.667963	-3.445651	-2.847065	5.789655	32.727601	59.008412	-27.945006	107.599893	35.713397	-15.771868	-15.601566	
2.7700	-2.667245	9.419907	15.153567	-0.115618	1.063800	-0.010796	-3.424524	11.632901	23.037719	2.072479	44.223529	-13.047922	70.761377	39.662200	-31.303060	28.764370	46.679051	3.006258	-2.305171	10.666272	-2.968297	-18.293613	-3.352167	-2.738403	5.625672	32.359883	59.097418	-28.284643	107.710007	35.690049	-15.589580	-14.869343	
2.7800	-2.576136	9.387857	14.973065	-0.114731	1.063954	-0.010797	-3.435173	11.439827	22.823375	1.956680	43.981438	-12.977548	71.180259	40.180163	-31.130078	28.531783	46.346742	2.996478	-2.492848	10.393663	-3.054791	-17.892453	-3.212371	-2.582592	5.447980	32.029745	59.109364	-28.568365	107.839474	35.768763	-15.471770	-14.285295	
2.7900	-2.468163	9.334504	14.808096	-0.113932	1.064168	-0.010719	-3.454584	11.302763	22.629082	1.877491	43.789400	-12.919763	71.467015	40.665872	-31.023521	28.334903	46.038529	2.997909	-2.689541	10.138150	-3.168855	-17.533903	-3.038684	-2.406986	5.284534	31.809431	59.024865	-28.727564	107.975580	35.895838	-15.411653	-13.877583	
2.8000	-2.370819	9.273259	14.664265	-0.113223	1.064371	-0.010640	-3.463932	11.189430	22.467065	1.814350	43.616304	-12.871527	71.690060	41.090356	-30.965561	28.173770	45.760106	2.990547	-2.844910	9.924253	-3.272212	-17.242812	-2.878294	-2.241978	5.151869	31.664216	58.918219	-28.809972	108.080833	36.049208	-15.398083	-13.641381	
2.8100	-2.286958	9.208819	14.562807	-0.112654	1.064557	-0.010565	-3.480540	11.154292	22.359951	1.799574	43.530867	-12.845870	71.709173	41.369920	-30.944323	28.092779	45.601234	3.013730	-2.994523	9.773240	-3.365760	-17.045581	-2.741325	-2.113393	5.058851	31.612144	58.790417	-28.794360	108.153911	36.148869	-15.390621	-13.482401	
2.8200	-2.233681	9.152384	14.490161	-0.112168	1.064666	-0.010553	-3.489947	11.148666	22.303580	1.801404	43.490048	-12.834233	71.640427	41.516141	-30.937874	28.080579	45.534214	3.041377	-3.091599	9.689531	-3.414070	-16.940092	-2.664651	-2.033110	5.011235	31.609003	58.708172	-28.735115	108.181305	36.197835	-15.387733	-13.401053	
2.8300	-2.205610	9.095636	14.427861	-0.111717	1.064706	-0.010581	-3.501361	11.163142	22.283869	1.811987	43.495123	-12.832689	71.500112	41.555159	-30.938563	28.143298	45.543057	3.076248	-3.146764	9.652995	-3.411762	-16.898545	-2.645167	-1.982225	4.999801	31.653922	58.667052	-28.626995	108.184412	36.205377	-15.390337	-13.382673	
2.8400	-2.199262	9.036820	14.355627	-0.111231	1.064686	-0.010652	-3.504760	11.139091	22.265744	1.795557	43.477541	-12.825494	71.437082	41.582888	-30.922813	28.219480	45.544507	3.092447	-3.155887	9.626030	-3.364000	-16.862869	-2.671363	-1.943085	4.999939	31.678226	58.687926	-28.544738	108.168672	36.207646	-15.393096	-13.379439	
2.8500	-2.197436	8.968641	14.281833	-0.110747	1.064668	-0.010700	-3.513845	11.114538	22.244519	1.777371	43.467956	-12.817534	71.371758	41.607875	-30.907226	28.300604	45.546768	3.110160	-3.165781	9.594705	-3.310407	-16.820282	-2.701274	-1.900427	4.998589	31.712243	58.702795	-28.454629	108.155515	36.211306	-15.397295	-13.382946	
2.8600	-2.195094	8.896132	14.209299	-0.110289	1.064662	-0.010735	-3.524263	11.094536	22.225245	1.761908	43.463863	-12.810721	71.307554	41.630780	-30.891458	28.373094	45.550589	3.127600	-3.173812	9.567161	-3.263846	-16.782145	-2.727770	-1.864503	4.996851	31.748411	58.708880	-28.367540	108.138833	36.217910	-15.404213	-13.402630	
2.8700	-2.190735	8.821198	14.139248	-0.109856	1.064664	-0.010755	-3.535855	11.079928	22.209091	1.749651	43.466447	-12.805421	71.242696	41.651946	-30.874864	28.436872	45.556745	3.145412	-3.179620	9.543511	-3.226128	-16.749083	-2.749059	-1.834934	4.994625	31.788706	58.706078	-28.281787	108.118476	36.229247	-15.415945	-13.447801	
2.8800	-2.175883	8.744095	14.070778	-0.109468	1.064684	-0.010765	-3.546885	11.074275	22.200291	1.743251	43.476991	-12.803282	71.171405	41.674427	-30.854569	28.488439	45.567743	3.165183	-3.181255	9.527844	-3.206800	-16.727520	-2.758565	-1.816283	4.992207	31.833960	58.691627	-28.193268	108.086991	36.251081	-15.438773	-13.547696	
2.8900	-2.150706	8.669341	14.005760	-0.109113	1.064711	-0.010758	-3.559249	11.077720	22.198143	1.742258	43.498998	-12.803797	71.089827	41.694131	-30.830188	28.529913	45.585002	3.188420	-3.178837	9.516889	-3.204780	-16.713383	-2.755446	-1.804399	4.988153	31.892013	58.664646	-28.095210	108.049125	36.286602	-15.476848	-13.719099	
2.9000	-2.107755	8.587929	13.933920	-0.108792	1.064761	-0.010721	-3.583027	11.097298	22.206340	1.748195	43.556797	-12.809254	70.964277	41.707356	-30.793539	28.571665	45.619550	3.226395	-3.169976	9.503700	-3.227907	-16.698087	-2.730254	-1.793461	4.977335	32.003321	58.605205	-27.942441	108.002301	36.361540	-15.558956	-14.087647	
2.9100	-2.055261	8.501405	13.858545	-0.108489	1.064816	-0.010643	-3.617625	11.126922	22.220769	1.757257	43.644124	-12.817781	70.800747	41.713590	-30.747371	28.621550	45.667625	3.277160	-3.157584	9.483683	-3.264403	-16.675757	-2.689911	-1.775071	4.960475	32.162405	58.526343	-27.739756	107.955316	36.466302	-15.675456	-14.608792	
2.9200	-1.995196	8.409915	13.779219	-0.108212	1.064877	-0.010535	-3.660156	11.164377	22.240020	1.768943	43.753405	-12.828722	70.608723	41.714413	-30.693554	28.677842	45.725868	3.337593	-3.142498	9.459337	-3.310944	-16.648952	-2.638766	-1.752467	4.939354	32.357160	58.432437	-27.500645	107.907547	36.592856	-15.817246	-15.243738	
2.9300	-1.940503	8.327970	13.709518	-0.107957	1.064915	-0.010406	-3.697579	11.199451	22.258283	1.780617	43.851772	-12.838814	70.433984	41.712734	-30.643479	28.728573	45.779088	3.392608	-3.128518	9.438619	-3.354724	-16.627042	-2.591042	-1.732272	4.920436	32.534569	58.350833	-27.285925	107.866433	36.706045	-15.945269	-15.821066	
2.9400	-1.890282	8.246243	13.642358	-0.107734	1.064941	-0.010276	-3.729309	11.231259	22.274720	1.791942	43.936639	-12.848044	70.280273	41.715047	-30.595628	28.778296	45.825531	3.441926	-3.116200	9.423964	-3.392219	-16.611867	-2.551871	-1.719027	4.905440	32.688711	58.279180	-27.101404	107.826074	36.802033	-16.054469	-16.320755	
